<mxfile host="app.diagrams.net" modified="2024-04-02T21:37:53.767Z" agent="Mozilla/5.0 (Windows NT 10.0; Win64; x64) AppleWebKit/537.36 (KHTML, like Gecko) Chrome/122.0.0.0 Safari/537.36" etag="gmjo6TEFy8SwqwKuZ5wZ" version="24.2.1" type="github">
  <diagram id="R2lEEEUBdFMjLlhIrx00" name="Page-1">
    <mxGraphModel dx="1088" dy="922" grid="1" gridSize="10" guides="1" tooltips="1" connect="1" arrows="1" fold="1" page="1" pageScale="1" pageWidth="850" pageHeight="1100" math="0" shadow="0" extFonts="Permanent Marker^https://fonts.googleapis.com/css?family=Permanent+Marker">
      <root>
        <mxCell id="0" />
        <mxCell id="1" parent="0" />
        <mxCell id="YkJlxvteugCw9PptVSyT-5" value="EMPLOYEE" style="text;html=1;align=center;verticalAlign=middle;resizable=0;points=[];autosize=1;strokeColor=none;fillColor=none;" vertex="1" parent="1">
          <mxGeometry x="70" y="125" width="90" height="30" as="geometry" />
        </mxCell>
        <mxCell id="YkJlxvteugCw9PptVSyT-7" value="&lt;u&gt;Emp_id&lt;/u&gt;" style="whiteSpace=wrap;html=1;align=center;" vertex="1" parent="1">
          <mxGeometry x="160" y="120" width="100" height="40" as="geometry" />
        </mxCell>
        <mxCell id="YkJlxvteugCw9PptVSyT-8" value="Emp_firstname" style="whiteSpace=wrap;html=1;align=center;" vertex="1" parent="1">
          <mxGeometry x="260" y="120" width="100" height="40" as="geometry" />
        </mxCell>
        <mxCell id="YkJlxvteugCw9PptVSyT-9" value="Emp_midname" style="whiteSpace=wrap;html=1;align=center;" vertex="1" parent="1">
          <mxGeometry x="360" y="120" width="100" height="40" as="geometry" />
        </mxCell>
        <mxCell id="YkJlxvteugCw9PptVSyT-10" value="Emp_lastname" style="whiteSpace=wrap;html=1;align=center;" vertex="1" parent="1">
          <mxGeometry x="460" y="120" width="100" height="40" as="geometry" />
        </mxCell>
        <mxCell id="YkJlxvteugCw9PptVSyT-11" value="MANAGER" style="text;html=1;align=center;verticalAlign=middle;resizable=0;points=[];autosize=1;strokeColor=none;fillColor=none;" vertex="1" parent="1">
          <mxGeometry x="80" y="245" width="80" height="30" as="geometry" />
        </mxCell>
        <mxCell id="YkJlxvteugCw9PptVSyT-12" value="&lt;u&gt;Mngr_emp_id&lt;/u&gt;" style="whiteSpace=wrap;html=1;align=center;" vertex="1" parent="1">
          <mxGeometry x="160" y="240" width="100" height="40" as="geometry" />
        </mxCell>
        <mxCell id="YkJlxvteugCw9PptVSyT-13" value="Mngr_bonus" style="whiteSpace=wrap;html=1;align=center;" vertex="1" parent="1">
          <mxGeometry x="260" y="240" width="100" height="40" as="geometry" />
        </mxCell>
        <mxCell id="YkJlxvteugCw9PptVSyT-16" value="VENDOR" style="text;html=1;align=center;verticalAlign=middle;resizable=0;points=[];autosize=1;strokeColor=none;fillColor=none;" vertex="1" parent="1">
          <mxGeometry x="90" y="365" width="70" height="30" as="geometry" />
        </mxCell>
        <mxCell id="YkJlxvteugCw9PptVSyT-17" value="&lt;u&gt;Vdr_name&lt;/u&gt;" style="whiteSpace=wrap;html=1;align=center;" vertex="1" parent="1">
          <mxGeometry x="160" y="360" width="100" height="40" as="geometry" />
        </mxCell>
        <mxCell id="YkJlxvteugCw9PptVSyT-19" value="Vdr_addstreet" style="whiteSpace=wrap;html=1;align=center;" vertex="1" parent="1">
          <mxGeometry x="260" y="360" width="100" height="40" as="geometry" />
        </mxCell>
        <mxCell id="YkJlxvteugCw9PptVSyT-20" value="Vdr_addcity" style="whiteSpace=wrap;html=1;align=center;" vertex="1" parent="1">
          <mxGeometry x="360" y="360" width="100" height="40" as="geometry" />
        </mxCell>
        <mxCell id="YkJlxvteugCw9PptVSyT-21" value="Vdr_addstate" style="whiteSpace=wrap;html=1;align=center;" vertex="1" parent="1">
          <mxGeometry x="460" y="360" width="100" height="40" as="geometry" />
        </mxCell>
        <mxCell id="YkJlxvteugCw9PptVSyT-22" value="Vdr_addzip" style="whiteSpace=wrap;html=1;align=center;" vertex="1" parent="1">
          <mxGeometry x="560" y="360" width="100" height="40" as="geometry" />
        </mxCell>
        <mxCell id="YkJlxvteugCw9PptVSyT-23" value="Vdr_firstname" style="whiteSpace=wrap;html=1;align=center;" vertex="1" parent="1">
          <mxGeometry x="660" y="360" width="100" height="40" as="geometry" />
        </mxCell>
        <mxCell id="YkJlxvteugCw9PptVSyT-24" value="Vdr_midname" style="whiteSpace=wrap;html=1;align=center;" vertex="1" parent="1">
          <mxGeometry x="760" y="360" width="100" height="40" as="geometry" />
        </mxCell>
        <mxCell id="YkJlxvteugCw9PptVSyT-25" value="Vdr_lastname" style="whiteSpace=wrap;html=1;align=center;" vertex="1" parent="1">
          <mxGeometry x="860" y="360" width="100" height="40" as="geometry" />
        </mxCell>
        <mxCell id="YkJlxvteugCw9PptVSyT-26" value="ASSIGNMENT" style="text;html=1;align=center;verticalAlign=middle;resizable=0;points=[];autosize=1;strokeColor=none;fillColor=none;" vertex="1" parent="1">
          <mxGeometry x="60" y="485" width="100" height="30" as="geometry" />
        </mxCell>
        <mxCell id="YkJlxvteugCw9PptVSyT-27" value="Agmt_hours" style="whiteSpace=wrap;html=1;align=center;" vertex="1" parent="1">
          <mxGeometry x="360" y="480" width="100" height="40" as="geometry" />
        </mxCell>
        <mxCell id="YkJlxvteugCw9PptVSyT-29" value="Emp_gender" style="whiteSpace=wrap;html=1;align=center;" vertex="1" parent="1">
          <mxGeometry x="560" y="120" width="100" height="40" as="geometry" />
        </mxCell>
        <mxCell id="YkJlxvteugCw9PptVSyT-30" value="Emp_salary" style="whiteSpace=wrap;html=1;align=center;" vertex="1" parent="1">
          <mxGeometry x="660" y="120" width="100" height="40" as="geometry" />
        </mxCell>
        <mxCell id="YkJlxvteugCw9PptVSyT-31" value="Gender and salary should be Emp" style="text;html=1;align=center;verticalAlign=middle;resizable=0;points=[];autosize=1;strokeColor=none;fillColor=none;" vertex="1" parent="1">
          <mxGeometry x="150" y="40" width="210" height="30" as="geometry" />
        </mxCell>
        <mxCell id="YkJlxvteugCw9PptVSyT-32" value="INTERNAL PROJECT" style="text;html=1;align=center;verticalAlign=middle;resizable=0;points=[];autosize=1;strokeColor=none;fillColor=none;" vertex="1" parent="1">
          <mxGeometry x="20" y="725" width="140" height="30" as="geometry" />
        </mxCell>
        <mxCell id="YkJlxvteugCw9PptVSyT-33" value="Intprj_priorityrating" style="whiteSpace=wrap;html=1;align=center;" vertex="1" parent="1">
          <mxGeometry x="255" y="720" width="115" height="40" as="geometry" />
        </mxCell>
        <mxCell id="YkJlxvteugCw9PptVSyT-34" value="EXTERNAL PROJECT" style="text;html=1;align=center;verticalAlign=middle;resizable=0;points=[];autosize=1;strokeColor=none;fillColor=none;" vertex="1" parent="1">
          <mxGeometry x="10" y="845" width="150" height="30" as="geometry" />
        </mxCell>
        <mxCell id="YkJlxvteugCw9PptVSyT-35" value="Extprj_contractcost" style="whiteSpace=wrap;html=1;align=center;" vertex="1" parent="1">
          <mxGeometry x="260" y="840" width="105" height="40" as="geometry" />
        </mxCell>
        <mxCell id="YkJlxvteugCw9PptVSyT-36" value="PROJECT" style="text;html=1;align=center;verticalAlign=middle;resizable=0;points=[];autosize=1;strokeColor=none;fillColor=none;" vertex="1" parent="1">
          <mxGeometry x="80" y="605" width="80" height="30" as="geometry" />
        </mxCell>
        <mxCell id="YkJlxvteugCw9PptVSyT-37" value="&lt;u&gt;Prj_no&lt;/u&gt;" style="whiteSpace=wrap;html=1;align=center;" vertex="1" parent="1">
          <mxGeometry x="160" y="600" width="100" height="40" as="geometry" />
        </mxCell>
        <mxCell id="YkJlxvteugCw9PptVSyT-38" value="Prj_budget" style="whiteSpace=wrap;html=1;align=center;" vertex="1" parent="1">
          <mxGeometry x="260" y="600" width="100" height="40" as="geometry" />
        </mxCell>
        <mxCell id="YkJlxvteugCw9PptVSyT-39" value="Prj_startdate" style="whiteSpace=wrap;html=1;align=center;" vertex="1" parent="1">
          <mxGeometry x="360" y="600" width="100" height="40" as="geometry" />
        </mxCell>
        <mxCell id="YkJlxvteugCw9PptVSyT-40" value="Prj_description" style="whiteSpace=wrap;html=1;align=center;" vertex="1" parent="1">
          <mxGeometry x="460" y="600" width="100" height="40" as="geometry" />
        </mxCell>
        <mxCell id="YkJlxvteugCw9PptVSyT-41" value="Prj_actualcost" style="whiteSpace=wrap;html=1;align=center;" vertex="1" parent="1">
          <mxGeometry x="560" y="600" width="100" height="40" as="geometry" />
        </mxCell>
        <mxCell id="YkJlxvteugCw9PptVSyT-42" value="&lt;u&gt;Intprj_prj_no&lt;/u&gt;" style="whiteSpace=wrap;html=1;align=center;" vertex="1" parent="1">
          <mxGeometry x="160" y="720" width="100" height="40" as="geometry" />
        </mxCell>
        <mxCell id="YkJlxvteugCw9PptVSyT-43" value="&lt;u&gt;Extprj_prj_no&lt;/u&gt;" style="whiteSpace=wrap;html=1;align=center;" vertex="1" parent="1">
          <mxGeometry x="160" y="840" width="100" height="40" as="geometry" />
        </mxCell>
        <mxCell id="YkJlxvteugCw9PptVSyT-44" value="&lt;u&gt;Agmt_prj_no&lt;/u&gt;" style="whiteSpace=wrap;html=1;align=center;" vertex="1" parent="1">
          <mxGeometry x="160" y="480" width="100" height="40" as="geometry" />
        </mxCell>
        <mxCell id="YkJlxvteugCw9PptVSyT-45" value="&lt;u&gt;Agmt_emp_id&lt;/u&gt;" style="whiteSpace=wrap;html=1;align=center;" vertex="1" parent="1">
          <mxGeometry x="260" y="480" width="100" height="40" as="geometry" />
        </mxCell>
        <mxCell id="YkJlxvteugCw9PptVSyT-46" value="&lt;u&gt;Extprj_vdr_name&lt;/u&gt;" style="whiteSpace=wrap;html=1;align=center;" vertex="1" parent="1">
          <mxGeometry x="365" y="840" width="105" height="40" as="geometry" />
        </mxCell>
      </root>
    </mxGraphModel>
  </diagram>
</mxfile>
